<?xml version="1.0" encoding="utf-8"?>
<!-- Generator: Adobe Illustrator 27.8.1, SVG Export Plug-In . SVG Version: 6.00 Build 0)  -->
<svg version="1.1" id="Livello_1" xmlns="http://www.w3.org/2000/svg" xmlns:xlink="http://www.w3.org/1999/xlink" x="0px" y="0px"
	 viewBox="100 225 200 140" style="enable-background:new 0 0 841.89 595.28;" xml:space="preserve">
<style type="text/css">
	.st0{fill:#008FD6;}
	.st1{fill:#76B72A;}
	.st2{fill:none;stroke:#76B72A;stroke-width:8.5;}
</style>
<!-- GREEN DOT -->
<path class="st1" d="M203.03,310.26c7.04,0,12.76-5.71,12.76-12.76c0-7.05-5.71-12.76-12.76-12.76s-12.76,5.71-12.76,12.76
	C190.27,304.55,195.98,310.26,203.03,310.26"/>
<!-- GREEN HOLLOW CIRCLE -->
<circle class="st2" cx="116.29" cy="297.5" r="11.42"/>
<!-- LETTER C -->
<path class="st0" d="M156.68,316.68c2.4,6.08,5.78,11.38,10.13,15.91c4.35,4.53,9.54,8.09,15.57,10.68
	c6.03,2.58,12.62,3.88,19.79,3.88c6.07,0,11.4-0.8,15.98-2.38c4.58-1.59,8.45-3.33,11.63-5.24c3.72-2.26,6.94-4.8,9.66-7.62
	l-7.21-9.66c-2.36,2.36-5.03,4.44-8.02,6.26c-2.63,1.54-5.74,2.97-9.32,4.28c-3.58,1.32-7.68,1.97-12.31,1.97
	c-5.35,0-10.2-1.02-14.55-3.06c-4.35-2.04-8.09-4.78-11.22-8.23c-3.13-3.45-5.56-7.46-7.28-12.04c-1.72-4.58-2.58-9.45-2.58-14.62
	c0-5.08,0.84-9.86,2.52-14.35c1.68-4.49,4.06-8.38,7.14-11.7c3.08-3.31,6.82-5.92,11.22-7.82c4.4-1.9,9.27-2.86,14.62-2.86
	c4.17,0,7.96,0.57,11.36,1.7c3.4,1.14,6.32,2.34,8.77,3.6c1.54,0.82,3.17,1.22,4.9,1.22c1.63,0,3.17-0.38,4.62-1.16
	c1.45-0.77,2.67-1.88,3.67-3.33l1.09-1.63c-2.45-2.36-5.4-4.49-8.84-6.39c-2.9-1.54-6.53-2.97-10.88-4.28
	c-4.35-1.31-9.43-1.97-15.23-1.97c-6.98,0-13.44,1.25-19.38,3.74c-5.94,2.49-11.08,5.94-15.44,10.34
	c-4.35,4.4-7.78,9.59-10.27,15.57c-2.49,5.98-3.74,12.47-3.74,19.45C153.07,304.03,154.27,310.6,156.68,316.68"/>
</svg>
