<?xml version="1.0" encoding="utf-8"?>
<!-- Generator: Adobe Illustrator 27.8.1, SVG Export Plug-In . SVG Version: 6.00 Build 0)  -->
<svg version="1.1" id="Livello_1" xmlns="http://www.w3.org/2000/svg" xmlns:xlink="http://www.w3.org/1999/xlink" x="0px" y="0px"
	 viewBox="100 225 650 140" style="enable-background:new 0 0 841.89 595.28;" xml:space="preserve">
<style type="text/css">
	.st0{fill:#008FD6;}
	.st1{fill:#76B72A;}
	.st2{fill:none;stroke:#76B72A;stroke-width:8.5;}
</style>
<!-- APPLICATIONS -->
<path class="st0" d="M725.9,343.88h1.59l0,1.64h-1.59L725.9,343.88z M715.11,342.74c0.89,0.75,1.94,1.13,3.16,1.14
	c1.44-0.02,2.18-0.55,2.2-1.6c0.01-0.86-0.47-1.37-1.45-1.54c-0.45-0.06-0.94-0.13-1.47-0.21c-0.96-0.16-1.68-0.53-2.18-1.1
	c-0.51-0.58-0.77-1.29-0.77-2.13c0-1,0.32-1.81,0.97-2.43c0.62-0.61,1.51-0.92,2.66-0.93c1.38,0.03,2.58,0.43,3.6,1.19l-0.94,1.43
	c-0.83-0.57-1.75-0.86-2.75-0.88c-0.52,0-0.95,0.13-1.3,0.4c-0.36,0.28-0.55,0.69-0.56,1.24c0,0.33,0.12,0.63,0.37,0.9
	c0.25,0.27,0.65,0.46,1.2,0.57c0.3,0.05,0.72,0.11,1.25,0.18c1.04,0.15,1.81,0.53,2.31,1.16c0.49,0.61,0.74,1.33,0.74,2.14
	c-0.06,2.2-1.36,3.31-3.9,3.34c-1.64,0-3.06-0.52-4.24-1.57L715.11,342.74z M702.17,334.04h1.59l5.03,8.16h0.03l0-8.16h1.68l0,11.48
	h-1.59l-5.03-8.16h-0.03l0,8.16h-1.68L702.17,334.04z M691.87,339.78c0,1.13,0.04,1.9,0.12,2.29c0.07,0.4,0.22,0.72,0.44,0.97
	c0.18,0.24,0.41,0.43,0.7,0.58c0.29,0.17,0.63,0.26,1.02,0.26c0.4,0,0.75-0.09,1.05-0.26c0.28-0.15,0.5-0.34,0.67-0.58
	c0.22-0.25,0.37-0.57,0.45-0.97c0.08-0.4,0.11-1.16,0.11-2.29c0-1.13-0.04-1.9-0.12-2.31c-0.08-0.39-0.23-0.71-0.45-0.96
	c-0.17-0.24-0.39-0.43-0.67-0.59c-0.3-0.15-0.64-0.23-1.05-0.24c-0.4,0.01-0.74,0.09-1.02,0.24c-0.29,0.16-0.52,0.36-0.7,0.59
	c-0.22,0.25-0.36,0.57-0.44,0.96C691.91,337.88,691.87,338.65,691.87,339.78 M690.19,339.78c0-1.34,0.04-2.23,0.11-2.68
	c0.08-0.45,0.21-0.82,0.37-1.1c0.27-0.53,0.7-1,1.3-1.41c0.58-0.42,1.31-0.63,2.19-0.64c0.88,0.01,1.62,0.23,2.21,0.65
	c0.59,0.41,1.01,0.89,1.26,1.42c0.19,0.28,0.32,0.64,0.39,1.09c0.07,0.45,0.1,1.34,0.1,2.68c0,1.31-0.03,2.2-0.1,2.66
	c-0.07,0.46-0.2,0.83-0.39,1.11c-0.26,0.53-0.68,1-1.27,1.4c-0.59,0.42-1.33,0.64-2.21,0.66c-0.87-0.02-1.6-0.24-2.19-0.66
	c-0.59-0.4-1.03-0.87-1.3-1.4c-0.08-0.17-0.16-0.34-0.22-0.5c-0.06-0.16-0.11-0.37-0.15-0.61
	C690.23,341.98,690.19,341.09,690.19,339.78 M684.64,334.04h1.68l0,11.48h-1.68L684.64,334.04z M676.7,335.59h-3.05l0-1.54h7.78
	l0,1.54h-3.05l0,9.93h-1.68L676.7,335.59z M670.09,342.95h-4.22l-0.85,2.57h-1.78l4.04-11.48h1.41l4.04,11.48h-1.78L670.09,342.95z
	 M669.61,341.41l-1.61-5.02h-0.03l-1.61,5.02H669.61z M661.16,342.31c-0.24,1.06-0.71,1.88-1.4,2.45c-0.71,0.57-1.54,0.85-2.51,0.85
	c-0.87-0.02-1.6-0.24-2.19-0.66c-0.59-0.4-1.03-0.87-1.3-1.4c-0.08-0.17-0.16-0.34-0.22-0.5c-0.06-0.16-0.11-0.37-0.15-0.61
	c-0.08-0.46-0.11-1.35-0.11-2.66c0-1.33,0.04-2.23,0.12-2.68c0.08-0.45,0.21-0.82,0.37-1.09c0.27-0.53,0.7-1,1.3-1.42
	c0.58-0.42,1.31-0.64,2.19-0.65c1.07,0.01,1.95,0.34,2.62,0.98c0.68,0.65,1.1,1.45,1.28,2.41h-1.79c-0.14-0.46-0.39-0.86-0.75-1.18
	c-0.38-0.31-0.84-0.47-1.37-0.48c-0.4,0.01-0.74,0.09-1.02,0.24c-0.29,0.16-0.52,0.36-0.7,0.59c-0.22,0.25-0.36,0.57-0.43,0.96
	c-0.08,0.41-0.12,1.18-0.12,2.31c0,1.13,0.04,1.9,0.12,2.29c0.07,0.4,0.22,0.72,0.44,0.97c0.18,0.24,0.41,0.43,0.7,0.58
	c0.29,0.17,0.63,0.26,1.02,0.26c0.95,0,1.66-0.52,2.12-1.57H661.16z M647.73,334.04h1.68l0,11.48h-1.68L647.73,334.04z
	 M636.99,334.04h1.68l0,9.84h5.42l0,1.64h-7.1L636.99,334.04z M625.66,334.04h4.03c0.44,0,0.86,0.04,1.27,0.13
	c0.41,0.11,0.82,0.34,1.24,0.68c0.35,0.26,0.63,0.62,0.85,1.1c0.23,0.46,0.34,1.01,0.34,1.64c0,0.85-0.29,1.62-0.87,2.32
	c-0.6,0.73-1.47,1.11-2.61,1.13h-2.57l0,4.48h-1.68L625.66,334.04z M627.35,339.41h2.5c0.63-0.01,1.1-0.21,1.41-0.6
	c0.3-0.38,0.45-0.8,0.45-1.26c0-0.39-0.06-0.71-0.18-0.97c-0.13-0.24-0.31-0.42-0.53-0.56c-0.35-0.23-0.75-0.33-1.21-0.32h-2.44
	L627.35,339.41z M614.33,334.04h4.03c0.44,0,0.86,0.04,1.27,0.13c0.41,0.11,0.82,0.34,1.24,0.68c0.35,0.26,0.63,0.62,0.85,1.1
	c0.23,0.46,0.34,1.01,0.34,1.64c0,0.85-0.29,1.62-0.87,2.32c-0.6,0.73-1.47,1.11-2.61,1.13h-2.57l0,4.48h-1.68L614.33,334.04z
	 M616.02,339.41h2.5c0.63-0.01,1.1-0.21,1.41-0.6c0.3-0.38,0.45-0.8,0.45-1.26c0-0.39-0.06-0.71-0.18-0.97
	c-0.13-0.24-0.31-0.42-0.53-0.56c-0.35-0.23-0.75-0.33-1.21-0.32h-2.44L616.02,339.41z M608.43,342.95h-4.22l-0.85,2.57h-1.78
	l4.04-11.48h1.41l4.04,11.48h-1.78L608.43,342.95z M607.95,341.41l-1.61-5.02h-0.03l-1.61,5.02H607.95z"/>
<!-- RESEARCH AND -->
<path class="st0" d="M718.15,322.73h2.02c0.95,0,1.63-0.33,2.06-1c0.19-0.25,0.31-0.56,0.36-0.94c0.05-0.37,0.07-1.07,0.07-2.1
	c0-1-0.02-1.71-0.07-2.15c-0.06-0.43-0.21-0.78-0.43-1.05c-0.47-0.67-1.13-0.99-1.99-0.97h-2.02L718.15,322.73z M716.47,312.89h3.89
	c1.51,0.01,2.63,0.66,3.39,1.94c0.27,0.43,0.44,0.88,0.51,1.35c0.06,0.47,0.08,1.29,0.08,2.45c0,1.23-0.04,2.09-0.13,2.58
	c-0.04,0.25-0.1,0.47-0.18,0.66c-0.09,0.19-0.19,0.39-0.31,0.59c-0.32,0.54-0.78,0.99-1.36,1.34c-0.57,0.38-1.28,0.57-2.11,0.57
	h-3.78L716.47,312.89z M703.67,312.89h1.59l5.03,8.16h0.03l0-8.16H712l0,11.48h-1.59l-5.03-8.16h-0.03l0,8.16h-1.68L703.67,312.89z
	 M697.76,321.8h-4.22l-0.85,2.57h-1.78l4.04-11.48h1.41l4.04,11.48h-1.78L697.76,321.8z M697.28,320.26l-1.61-5.02h-0.03l-1.61,5.02
	H697.28z M680.3,319.35h-4.41l0,5.02h-1.68l0-11.48h1.68l0,4.92h4.41v-4.92h1.68l0,11.48h-1.68L680.3,319.35z M670.97,321.16
	c-0.24,1.06-0.71,1.88-1.4,2.45c-0.71,0.56-1.54,0.85-2.51,0.85c-0.87-0.02-1.6-0.24-2.19-0.66c-0.59-0.4-1.03-0.87-1.3-1.4
	c-0.08-0.17-0.16-0.34-0.22-0.5c-0.06-0.16-0.11-0.37-0.15-0.61c-0.08-0.46-0.11-1.35-0.11-2.66c0-1.33,0.04-2.23,0.12-2.68
	c0.08-0.45,0.2-0.82,0.37-1.09c0.27-0.53,0.7-1,1.3-1.42c0.58-0.42,1.31-0.63,2.19-0.64c1.07,0.01,1.95,0.34,2.62,0.98
	c0.68,0.65,1.1,1.45,1.28,2.41h-1.79c-0.14-0.46-0.39-0.86-0.75-1.18c-0.38-0.31-0.84-0.47-1.37-0.48c-0.4,0.01-0.74,0.09-1.02,0.24
	c-0.29,0.16-0.52,0.36-0.7,0.59c-0.22,0.25-0.36,0.56-0.43,0.95c-0.08,0.41-0.12,1.18-0.12,2.31c0,1.13,0.04,1.89,0.12,2.29
	c0.07,0.4,0.22,0.72,0.44,0.97c0.18,0.24,0.41,0.43,0.7,0.58c0.29,0.17,0.63,0.26,1.02,0.26c0.95,0,1.66-0.52,2.12-1.57H670.97z
	 M651.86,312.89h4.34c0.93,0,1.68,0.25,2.27,0.76c0.7,0.57,1.07,1.39,1.1,2.45c-0.02,1.56-0.74,2.62-2.15,3.18l2.57,5.09h-2
	l-2.3-4.9h-2.16v4.9h-1.68L651.86,312.89z M653.55,317.92h2.55c0.63-0.01,1.11-0.2,1.42-0.57c0.31-0.34,0.47-0.76,0.47-1.26
	c-0.01-0.6-0.2-1.03-0.56-1.3c-0.29-0.24-0.7-0.36-1.24-0.36h-2.65L653.55,317.92z M645.96,321.8h-4.21l-0.85,2.57h-1.78l4.04-11.48
	h1.41l4.04,11.48h-1.78L645.96,321.8z M645.48,320.26l-1.61-5.02h-0.03l-1.61,5.02H645.48z M629.52,312.89h7.1l0,1.64h-5.42l0,3.28
	h4.63l0,1.54h-4.62l0,3.38h5.42l0,1.64h-7.1L629.52,312.89z M618.64,321.58c0.89,0.75,1.94,1.13,3.16,1.14
	c1.44-0.02,2.18-0.55,2.2-1.6c0.01-0.86-0.47-1.37-1.45-1.54c-0.45-0.06-0.94-0.13-1.47-0.21c-0.96-0.16-1.68-0.53-2.18-1.1
	c-0.51-0.58-0.77-1.29-0.77-2.13c0-1,0.32-1.81,0.97-2.43c0.62-0.61,1.51-0.92,2.66-0.93c1.38,0.03,2.58,0.43,3.6,1.19l-0.94,1.43
	c-0.83-0.57-1.75-0.86-2.75-0.88c-0.52,0-0.95,0.13-1.3,0.4c-0.36,0.28-0.55,0.69-0.56,1.24c0,0.33,0.12,0.63,0.37,0.9
	c0.25,0.27,0.65,0.46,1.2,0.57c0.31,0.05,0.72,0.11,1.25,0.18c1.04,0.15,1.81,0.53,2.31,1.16c0.49,0.61,0.74,1.33,0.74,2.14
	c-0.06,2.19-1.36,3.31-3.9,3.34c-1.65,0-3.06-0.52-4.24-1.57L618.64,321.58z M607.76,312.89h7.1l0,1.64h-5.42l0,3.28h4.62l0,1.54
	h-4.62l0,3.38h5.42l0,1.64h-7.1L607.76,312.89z M596.16,312.89h4.34c0.93,0,1.68,0.25,2.27,0.76c0.71,0.57,1.07,1.39,1.1,2.45
	c-0.02,1.56-0.74,2.62-2.15,3.18l2.57,5.09h-2l-2.3-4.9h-2.16v4.9h-1.68L596.16,312.89z M597.84,317.92h2.55
	c0.63-0.01,1.11-0.2,1.42-0.57c0.31-0.34,0.47-0.76,0.47-1.26c-0.01-0.6-0.2-1.03-0.56-1.3c-0.29-0.24-0.7-0.36-1.24-0.36h-2.65
	L597.84,317.92z"/>
<!-- FOUNDATIONAL -->
<path class="st0" d="M710.36,291.73h1.68v9.84h5.42l0,1.64h-7.1L710.36,291.73z M704.45,300.64h-4.22l-0.85,2.57h-1.78l4.04-11.48
	h1.41l4.04,11.48h-1.78L704.45,300.64z M703.97,299.1l-1.61-5.02h-0.03l-1.61,5.02H703.97z M685.95,291.73h1.59l5.03,8.16h0.03
	l0-8.16h1.68l0,11.48h-1.59l-5.03-8.16h-0.03l0,8.16h-1.68L685.95,291.73z M675.65,297.47c0,1.13,0.04,1.9,0.12,2.3
	c0.07,0.4,0.22,0.72,0.44,0.97c0.18,0.24,0.41,0.43,0.7,0.58c0.28,0.17,0.63,0.26,1.02,0.26c0.4,0,0.75-0.09,1.05-0.26
	c0.28-0.15,0.5-0.34,0.67-0.58c0.22-0.25,0.37-0.57,0.45-0.97c0.08-0.4,0.11-1.16,0.11-2.3c0-1.13-0.04-1.9-0.11-2.31
	c-0.08-0.39-0.23-0.71-0.45-0.95c-0.17-0.24-0.39-0.43-0.67-0.59c-0.3-0.15-0.64-0.23-1.05-0.24c-0.4,0.01-0.74,0.09-1.02,0.24
	c-0.29,0.16-0.52,0.35-0.7,0.59c-0.22,0.25-0.36,0.56-0.43,0.95C675.69,295.57,675.65,296.34,675.65,297.47 M673.97,297.47
	c0-1.34,0.04-2.23,0.11-2.68c0.08-0.45,0.21-0.82,0.37-1.1c0.27-0.53,0.7-1,1.3-1.41c0.58-0.42,1.31-0.63,2.19-0.64
	c0.88,0.01,1.62,0.23,2.21,0.64c0.58,0.42,1.01,0.89,1.26,1.42c0.19,0.28,0.32,0.64,0.39,1.09c0.07,0.45,0.1,1.34,0.1,2.68
	c0,1.31-0.03,2.2-0.1,2.66c-0.07,0.46-0.2,0.83-0.39,1.11c-0.26,0.53-0.68,1-1.27,1.4c-0.59,0.42-1.33,0.64-2.21,0.66
	c-0.87-0.02-1.6-0.24-2.19-0.66c-0.59-0.4-1.03-0.87-1.3-1.4c-0.08-0.17-0.16-0.34-0.22-0.5c-0.06-0.16-0.11-0.37-0.15-0.61
	C674.01,299.67,673.97,298.78,673.97,297.47 M668.42,291.73h1.68l0,11.48h-1.68L668.42,291.73z M660.47,293.27h-3.05l0-1.54h7.78
	l0,1.54h-3.05l0,9.93h-1.68L660.47,293.27z M653.87,300.64h-4.22l-0.85,2.57h-1.78l4.04-11.48h1.41l4.04,11.48h-1.78L653.87,300.64z
	 M653.39,299.1l-1.61-5.02h-0.03l-1.61,5.02H653.39z M638.22,301.57h2.02c0.95,0,1.63-0.33,2.06-1c0.19-0.25,0.31-0.56,0.36-0.94
	c0.05-0.37,0.07-1.07,0.07-2.1c0-1-0.02-1.71-0.07-2.14c-0.06-0.43-0.21-0.78-0.43-1.05c-0.47-0.67-1.13-0.99-1.99-0.97h-2.02
	L638.22,301.57z M636.54,291.73h3.89c1.5,0.01,2.63,0.66,3.39,1.94c0.27,0.43,0.44,0.88,0.51,1.35c0.06,0.47,0.08,1.29,0.08,2.45
	c0,1.23-0.04,2.09-0.13,2.58c-0.04,0.25-0.1,0.47-0.18,0.66c-0.09,0.19-0.19,0.39-0.31,0.59c-0.33,0.54-0.78,0.99-1.36,1.34
	c-0.57,0.38-1.28,0.57-2.11,0.57h-3.77L636.54,291.73z M623.74,291.73h1.59l5.03,8.16h0.03l0-8.16h1.68l0,11.48h-1.59l-5.03-8.16
	h-0.03l0,8.16h-1.68L623.74,291.73z M611.61,291.73h1.68l0,7.41c0.01,0.78,0.23,1.38,0.66,1.79c0.42,0.43,0.95,0.65,1.61,0.65
	c0.66,0,1.2-0.22,1.63-0.65c0.42-0.41,0.63-1.01,0.64-1.79l0-7.41h1.68l0,7.59c-0.02,1.21-0.4,2.17-1.14,2.87
	c-0.74,0.73-1.68,1.1-2.81,1.11c-1.11-0.01-2.04-0.38-2.79-1.11c-0.76-0.71-1.15-1.66-1.16-2.87L611.61,291.73z M601.51,297.47
	c0,1.13,0.04,1.9,0.12,2.3c0.07,0.4,0.22,0.72,0.44,0.97c0.18,0.24,0.41,0.43,0.7,0.58c0.28,0.17,0.63,0.26,1.02,0.26
	c0.4,0,0.75-0.09,1.05-0.26c0.28-0.15,0.5-0.34,0.67-0.58c0.22-0.25,0.37-0.57,0.45-0.97c0.08-0.4,0.11-1.16,0.11-2.3
	c0-1.13-0.04-1.9-0.11-2.31c-0.08-0.39-0.23-0.71-0.45-0.95c-0.17-0.24-0.39-0.43-0.67-0.59c-0.3-0.15-0.64-0.23-1.05-0.24
	c-0.4,0.01-0.74,0.09-1.02,0.24c-0.29,0.16-0.52,0.35-0.7,0.59c-0.22,0.25-0.36,0.56-0.43,0.95
	C601.55,295.57,601.51,296.34,601.51,297.47 M599.83,297.47c0-1.34,0.04-2.23,0.11-2.68c0.08-0.45,0.21-0.82,0.37-1.1
	c0.27-0.53,0.7-1,1.29-1.41c0.58-0.42,1.31-0.63,2.19-0.64c0.88,0.01,1.62,0.23,2.21,0.64c0.58,0.42,1.01,0.89,1.26,1.42
	c0.19,0.28,0.32,0.64,0.39,1.09c0.07,0.45,0.1,1.34,0.1,2.68c0,1.31-0.03,2.2-0.1,2.66c-0.07,0.46-0.2,0.83-0.39,1.11
	c-0.26,0.53-0.68,1-1.27,1.4c-0.59,0.42-1.33,0.64-2.21,0.66c-0.87-0.02-1.6-0.24-2.19-0.66c-0.59-0.4-1.03-0.87-1.3-1.4
	c-0.08-0.17-0.15-0.34-0.22-0.5c-0.06-0.16-0.11-0.37-0.15-0.61C599.87,299.67,599.83,298.78,599.83,297.47 M589.77,291.73h7.1
	l0,1.64h-5.42l0,3.39h4.62l0,1.54h-4.63l0,4.9h-1.68L589.77,291.73z"/>
<!-- AND INFORMATION: -->
<path class="st0" d="M738.79,280.41h1.59l0,1.64h-1.59L738.79,280.41z M738.79,276.75h1.59l0,1.64h-1.59L738.79,276.75z
	 M726.08,270.57h1.59l5.03,8.16h0.03l0-8.16h1.68l0,11.48h-1.59l-5.03-8.16h-0.03l0,8.16h-1.68L726.08,270.57z M715.78,276.31
	c0,1.13,0.04,1.9,0.12,2.3c0.07,0.4,0.22,0.72,0.44,0.97c0.18,0.24,0.41,0.43,0.7,0.57c0.28,0.17,0.63,0.26,1.02,0.26
	c0.4,0,0.75-0.09,1.05-0.26c0.28-0.15,0.5-0.34,0.67-0.57c0.22-0.25,0.37-0.57,0.45-0.97c0.08-0.4,0.11-1.16,0.11-2.3
	c0-1.13-0.04-1.9-0.11-2.31c-0.08-0.39-0.23-0.71-0.45-0.95c-0.17-0.24-0.39-0.43-0.67-0.59c-0.3-0.15-0.64-0.23-1.05-0.24
	c-0.4,0.01-0.74,0.09-1.02,0.24c-0.29,0.16-0.52,0.36-0.7,0.59c-0.22,0.25-0.36,0.57-0.44,0.95
	C715.82,274.41,715.78,275.18,715.78,276.31 M714.1,276.31c0-1.34,0.04-2.23,0.11-2.68c0.08-0.45,0.21-0.82,0.37-1.1
	c0.27-0.53,0.7-1,1.3-1.41c0.58-0.42,1.31-0.63,2.19-0.64c0.88,0.01,1.62,0.23,2.21,0.65c0.58,0.41,1.01,0.89,1.26,1.42
	c0.19,0.28,0.32,0.64,0.39,1.09c0.07,0.45,0.1,1.34,0.1,2.68c0,1.31-0.03,2.2-0.1,2.66c-0.07,0.46-0.2,0.83-0.39,1.11
	c-0.26,0.53-0.68,1-1.27,1.4c-0.59,0.42-1.33,0.64-2.21,0.66c-0.87-0.02-1.6-0.24-2.19-0.66c-0.59-0.4-1.03-0.87-1.3-1.4
	c-0.08-0.17-0.16-0.34-0.22-0.5c-0.06-0.16-0.11-0.37-0.15-0.61C714.14,278.51,714.1,277.62,714.1,276.31 M708.55,270.57h1.68
	l0,11.48h-1.68L708.55,270.57z M700.61,272.11h-3.05l0-1.54h7.78l0,1.54h-3.05l0,9.93h-1.68L700.61,272.11z M694,279.48h-4.22
	l-0.85,2.57h-1.78l4.04-11.48h1.41l4.04,11.48h-1.78L694,279.48z M693.52,277.94l-1.61-5.02h-0.03l-1.61,5.02H693.52z
	 M674.32,270.57h1.59l3.19,7.48l3.13-7.48h1.59l0,11.48h-1.68l0-7.16h-0.04l-2.33,5.51h-1.4l-2.33-5.51H676l0,7.16h-1.68
	L674.32,270.57z M662.71,270.57h4.34c0.93,0,1.68,0.25,2.27,0.76c0.7,0.57,1.07,1.39,1.1,2.45c-0.02,1.56-0.74,2.62-2.15,3.18
	l2.57,5.09h-2l-2.3-4.9h-2.16l0,4.9h-1.68L662.71,270.57z M664.4,275.6h2.55c0.63-0.01,1.11-0.2,1.42-0.57
	c0.31-0.34,0.47-0.76,0.47-1.26c-0.01-0.6-0.2-1.03-0.56-1.3c-0.29-0.24-0.7-0.36-1.24-0.36h-2.65V275.6z M652.41,276.31
	c0,1.13,0.04,1.9,0.12,2.3c0.07,0.4,0.22,0.72,0.44,0.97c0.18,0.24,0.41,0.43,0.7,0.57c0.28,0.17,0.63,0.26,1.02,0.26
	c0.4,0,0.75-0.09,1.05-0.26c0.28-0.15,0.5-0.34,0.67-0.57c0.22-0.25,0.37-0.57,0.45-0.97c0.08-0.4,0.11-1.16,0.11-2.3
	c0-1.13-0.04-1.9-0.11-2.31c-0.08-0.39-0.23-0.71-0.45-0.95c-0.17-0.24-0.39-0.43-0.67-0.59c-0.3-0.15-0.64-0.23-1.05-0.24
	c-0.4,0.01-0.74,0.09-1.02,0.24c-0.29,0.16-0.52,0.36-0.7,0.59c-0.22,0.25-0.36,0.57-0.44,0.95
	C652.46,274.41,652.41,275.18,652.41,276.31 M650.73,276.31c0-1.34,0.04-2.23,0.11-2.68c0.08-0.45,0.21-0.82,0.37-1.1
	c0.27-0.53,0.7-1,1.3-1.41c0.58-0.42,1.31-0.63,2.19-0.64c0.88,0.01,1.62,0.23,2.21,0.65c0.58,0.41,1.01,0.89,1.26,1.42
	c0.19,0.28,0.32,0.64,0.39,1.09c0.07,0.45,0.1,1.34,0.1,2.68c0,1.31-0.03,2.2-0.1,2.66c-0.07,0.46-0.2,0.83-0.39,1.11
	c-0.26,0.53-0.68,1-1.26,1.4c-0.59,0.42-1.33,0.64-2.21,0.66c-0.87-0.02-1.6-0.24-2.19-0.66c-0.59-0.4-1.03-0.87-1.3-1.4
	c-0.08-0.17-0.16-0.34-0.22-0.5c-0.06-0.16-0.11-0.37-0.15-0.61C650.77,278.51,650.73,277.62,650.73,276.31 M640.68,270.57h7.1
	l0,1.64h-5.42l0,3.39h4.62l0,1.54h-4.62l0,4.9h-1.68L640.68,270.57z M627.88,270.57h1.59l5.03,8.16h0.03l0-8.16h1.68l0,11.48h-1.59
	l-5.03-8.16h-0.03l0,8.16h-1.68L627.88,270.57z M621.95,270.57h1.68l0,11.48h-1.68L621.95,270.57z M606.07,280.41h2.02
	c0.95,0,1.63-0.33,2.06-1c0.19-0.25,0.31-0.56,0.36-0.94c0.05-0.37,0.07-1.07,0.07-2.1c0-1-0.02-1.71-0.07-2.15
	c-0.06-0.43-0.21-0.78-0.44-1.05c-0.47-0.67-1.13-0.99-1.98-0.97h-2.02L606.07,280.41z M604.38,270.57h3.89
	c1.51,0.01,2.63,0.66,3.39,1.94c0.27,0.43,0.44,0.88,0.51,1.35c0.06,0.47,0.08,1.29,0.08,2.45c0,1.23-0.04,2.09-0.13,2.58
	c-0.04,0.25-0.1,0.47-0.18,0.66c-0.09,0.19-0.19,0.39-0.31,0.59c-0.33,0.54-0.78,0.99-1.36,1.34c-0.57,0.38-1.28,0.57-2.11,0.57
	h-3.77L604.38,270.57z M591.58,270.57h1.59l5.03,8.16h0.03l0-8.16h1.68l0,11.48h-1.59l-5.03-8.16h-0.03l0,8.16h-1.68L591.58,270.57z
	 M585.67,279.48h-4.22l-0.85,2.57h-1.78l4.04-11.48h1.41l4.04,11.48h-1.78L585.67,279.48z M585.19,277.94l-1.61-5.02h-0.03
	l-1.61,5.02H585.19z"/>
<!-- CRYPTOGRAPHY -->
<path class="st0" d="M695.65,256.17l-3.35-6.76h1.79l2.36,5.09l2.36-5.09h1.78l-3.35,6.75l0,4.72h-1.59L695.65,256.17z
	 M687.59,255.87h-4.41l0,5.02h-1.68l0-11.48h1.68v4.92h4.41v-4.92h1.68l0,11.48h-1.68L687.59,255.87z M670.17,249.41h4.03
	c0.44,0,0.86,0.04,1.27,0.13c0.41,0.11,0.82,0.34,1.24,0.68c0.35,0.26,0.63,0.62,0.85,1.1c0.23,0.46,0.34,1.01,0.34,1.64
	c0,0.85-0.29,1.62-0.87,2.32c-0.6,0.73-1.46,1.11-2.61,1.13h-2.56l0,4.48h-1.68L670.17,249.41z M671.85,254.77h2.5
	c0.63-0.01,1.1-0.21,1.41-0.6c0.3-0.38,0.45-0.8,0.45-1.27c0-0.38-0.06-0.71-0.18-0.97c-0.13-0.24-0.31-0.42-0.53-0.56
	c-0.35-0.23-0.75-0.33-1.21-0.32h-2.44L671.85,254.77z M664.26,258.32h-4.22l-0.85,2.57h-1.78l4.04-11.48h1.41l4.04,11.48h-1.78
	L664.26,258.32z M663.78,256.78l-1.61-5.02h-0.03l-1.61,5.02H663.78z M646.96,249.41h4.34c0.93,0,1.68,0.25,2.27,0.76
	c0.7,0.57,1.07,1.39,1.1,2.45c-0.02,1.56-0.74,2.62-2.15,3.18l2.57,5.09h-2l-2.3-4.9h-2.15v4.9h-1.68L646.96,249.41z M648.64,254.44
	h2.55c0.63-0.01,1.11-0.2,1.42-0.57c0.31-0.34,0.47-0.76,0.47-1.26c-0.01-0.6-0.2-1.03-0.56-1.3c-0.29-0.24-0.7-0.36-1.24-0.36
	h-2.65L648.64,254.44z M638.96,254.58h3.95l0,2.33c-0.02,1.15-0.4,2.11-1.14,2.89c-0.75,0.77-1.69,1.17-2.82,1.19
	c-0.87-0.02-1.6-0.24-2.19-0.66c-0.59-0.4-1.03-0.87-1.3-1.4c-0.08-0.17-0.16-0.34-0.22-0.5c-0.06-0.16-0.11-0.37-0.15-0.61
	c-0.08-0.46-0.11-1.35-0.11-2.66c0-1.33,0.04-2.23,0.11-2.68c0.08-0.45,0.21-0.82,0.37-1.09c0.27-0.53,0.7-1,1.3-1.42
	c0.58-0.42,1.31-0.63,2.19-0.65c1.07,0.01,1.95,0.34,2.62,0.98c0.68,0.65,1.1,1.46,1.28,2.42h-1.79c-0.14-0.46-0.39-0.86-0.75-1.19
	c-0.38-0.31-0.83-0.47-1.37-0.48c-0.4,0.01-0.74,0.09-1.02,0.24c-0.29,0.16-0.52,0.35-0.7,0.59c-0.22,0.25-0.36,0.57-0.43,0.96
	c-0.08,0.41-0.12,1.18-0.12,2.31c0,1.13,0.04,1.9,0.12,2.29c0.07,0.4,0.22,0.72,0.44,0.97c0.18,0.24,0.41,0.43,0.7,0.58
	c0.28,0.17,0.63,0.26,1.02,0.26c0.66,0,1.2-0.23,1.63-0.7c0.43-0.44,0.65-1.02,0.66-1.74v-0.6h-2.27L638.96,254.58z M625.05,255.15
	c0,1.13,0.04,1.9,0.12,2.29c0.07,0.4,0.22,0.72,0.44,0.97c0.18,0.24,0.41,0.43,0.7,0.58c0.29,0.17,0.63,0.26,1.02,0.26
	c0.4,0,0.75-0.09,1.05-0.26c0.28-0.15,0.5-0.34,0.67-0.58c0.22-0.25,0.37-0.57,0.45-0.97c0.08-0.4,0.11-1.16,0.11-2.29
	c0-1.13-0.04-1.9-0.11-2.31c-0.08-0.39-0.23-0.71-0.45-0.96c-0.17-0.24-0.39-0.43-0.67-0.59c-0.3-0.15-0.64-0.23-1.05-0.24
	c-0.4,0.01-0.74,0.09-1.02,0.24c-0.29,0.16-0.52,0.35-0.7,0.59c-0.22,0.25-0.36,0.57-0.44,0.96
	C625.09,253.25,625.05,254.02,625.05,255.15 M623.37,255.15c0-1.34,0.04-2.23,0.11-2.68c0.08-0.45,0.21-0.82,0.37-1.1
	c0.27-0.53,0.7-1,1.3-1.41c0.58-0.42,1.31-0.63,2.19-0.64c0.88,0.01,1.62,0.23,2.21,0.65c0.58,0.41,1.01,0.89,1.27,1.42
	c0.19,0.28,0.32,0.64,0.39,1.09c0.07,0.45,0.1,1.34,0.1,2.68c0,1.31-0.03,2.2-0.1,2.66c-0.07,0.46-0.2,0.83-0.39,1.11
	c-0.26,0.53-0.68,1-1.27,1.4c-0.59,0.42-1.33,0.64-2.21,0.66c-0.87-0.02-1.6-0.24-2.19-0.66c-0.59-0.4-1.03-0.87-1.3-1.4
	c-0.08-0.17-0.16-0.34-0.22-0.5c-0.06-0.16-0.11-0.37-0.15-0.61C623.41,257.35,623.37,256.46,623.37,255.15 M616.1,250.95h-3.05
	l0-1.54h7.78l0,1.54h-3.05l0,9.93h-1.68L616.1,250.95z M602.88,249.41h4.03c0.44,0,0.86,0.04,1.27,0.13
	c0.41,0.11,0.82,0.34,1.24,0.68c0.35,0.26,0.63,0.62,0.85,1.1c0.23,0.46,0.34,1.01,0.34,1.64c0,0.85-0.29,1.62-0.87,2.32
	c-0.6,0.73-1.47,1.11-2.61,1.13h-2.57l0,4.48h-1.68L602.88,249.41z M604.56,254.77h2.5c0.63-0.01,1.1-0.21,1.41-0.6
	c0.3-0.38,0.45-0.8,0.45-1.27c0-0.38-0.06-0.71-0.18-0.97c-0.13-0.24-0.31-0.42-0.53-0.56c-0.35-0.23-0.75-0.33-1.21-0.32h-2.44
	L604.56,254.77z M594.98,256.17l-3.34-6.76h1.78l2.36,5.09l2.36-5.09h1.78l-3.35,6.75l0,4.72h-1.59L594.98,256.17z M581.92,249.41
	h4.34c0.93,0,1.68,0.25,2.27,0.76c0.7,0.57,1.07,1.39,1.1,2.45c-0.02,1.56-0.74,2.62-2.15,3.18l2.57,5.09h-2l-2.3-4.9h-2.16l0,4.9
	h-1.68L581.92,249.41z M583.6,254.44h2.55c0.63-0.01,1.11-0.2,1.42-0.57c0.31-0.34,0.47-0.76,0.47-1.26c-0.01-0.6-0.2-1.03-0.56-1.3
	c-0.29-0.24-0.7-0.36-1.24-0.36h-2.65L583.6,254.44z M578.68,257.68c-0.24,1.06-0.71,1.88-1.4,2.45c-0.71,0.57-1.54,0.85-2.51,0.85
	c-0.87-0.02-1.6-0.24-2.19-0.66c-0.59-0.4-1.03-0.87-1.3-1.4c-0.08-0.17-0.16-0.34-0.22-0.5c-0.06-0.16-0.11-0.37-0.15-0.61
	c-0.08-0.46-0.11-1.35-0.11-2.66c0-1.33,0.04-2.23,0.11-2.68c0.08-0.45,0.21-0.82,0.37-1.09c0.27-0.53,0.7-1,1.3-1.42
	c0.58-0.42,1.31-0.63,2.19-0.65c1.07,0.01,1.95,0.34,2.62,0.98c0.68,0.65,1.1,1.45,1.28,2.41h-1.79c-0.14-0.46-0.39-0.86-0.75-1.18
	c-0.38-0.31-0.84-0.47-1.37-0.48c-0.4,0.01-0.74,0.09-1.02,0.24c-0.29,0.16-0.52,0.35-0.7,0.59c-0.22,0.25-0.36,0.57-0.43,0.96
	c-0.08,0.41-0.12,1.18-0.12,2.31c0,1.13,0.04,1.9,0.12,2.29c0.07,0.4,0.22,0.72,0.44,0.97c0.18,0.24,0.41,0.43,0.7,0.58
	c0.29,0.17,0.63,0.26,1.02,0.26c0.95,0,1.66-0.52,2.12-1.57H578.68z"/>
<!-- GREEN DOT -->
<path class="st1" d="M203.03,310.26c7.04,0,12.76-5.71,12.76-12.76c0-7.05-5.71-12.76-12.76-12.76s-12.76,5.71-12.76,12.76
	C190.27,304.55,195.98,310.26,203.03,310.26"/>
<!-- GREEN HOLLOW CIRCLE -->
<circle class="st2" cx="116.29" cy="297.5" r="11.42"/>
<!-- LETTER C -->
<path class="st0" d="M156.68,316.68c2.4,6.08,5.78,11.38,10.13,15.91c4.35,4.53,9.54,8.09,15.57,10.68
	c6.03,2.58,12.62,3.88,19.79,3.88c6.07,0,11.4-0.8,15.98-2.38c4.58-1.59,8.45-3.33,11.63-5.24c3.72-2.26,6.94-4.8,9.66-7.62
	l-7.21-9.66c-2.36,2.36-5.03,4.44-8.02,6.26c-2.63,1.54-5.74,2.97-9.32,4.28c-3.58,1.32-7.68,1.97-12.31,1.97
	c-5.35,0-10.2-1.02-14.55-3.06c-4.35-2.04-8.09-4.78-11.22-8.23c-3.13-3.45-5.56-7.46-7.28-12.04c-1.72-4.58-2.58-9.45-2.58-14.62
	c0-5.08,0.84-9.86,2.52-14.35c1.68-4.49,4.06-8.38,7.14-11.7c3.08-3.31,6.82-5.92,11.22-7.82c4.4-1.9,9.27-2.86,14.62-2.86
	c4.17,0,7.96,0.57,11.36,1.7c3.4,1.14,6.32,2.34,8.77,3.6c1.54,0.82,3.17,1.22,4.9,1.22c1.63,0,3.17-0.38,4.62-1.16
	c1.45-0.77,2.67-1.88,3.67-3.33l1.09-1.63c-2.45-2.36-5.4-4.49-8.84-6.39c-2.9-1.54-6.53-2.97-10.88-4.28
	c-4.35-1.31-9.43-1.97-15.23-1.97c-6.98,0-13.44,1.25-19.38,3.74c-5.94,2.49-11.08,5.94-15.44,10.34
	c-4.35,4.4-7.78,9.59-10.27,15.57c-2.49,5.98-3.74,12.47-3.74,19.45C153.07,304.03,154.27,310.6,156.68,316.68"/>
<!-- LETTER I -->
<path class="st0" d="M276.07,345.51c2.45,0,4.53-0.86,6.26-2.58c1.72-1.72,2.58-3.81,2.58-6.26v-87.18h-13.46v96.02H276.07z"/>
<!-- LETTER F -->
<path class="st0" d="M327.89,345.51c2.45,0,4.53-0.86,6.26-2.58c1.72-1.72,2.58-3.81,2.58-6.26v-32.23h24.75
	c2.45,0,4.53-0.86,6.26-2.58c1.72-1.72,2.58-3.81,2.58-6.26v-2.86h-33.59v-31.55h42.98v-11.7H332.1c-2.45,0-4.54,0.88-6.26,2.65
	c-1.72,1.77-2.58,3.88-2.58,6.32v87.04H327.89z"/>
<!-- LETTER R -->
<path class="st0" d="M467.3,293.96c3.13-4.71,4.69-10.15,4.69-16.32c0-6.35-1.48-11.81-4.42-16.39c-2.95-4.58-6.87-7.77-11.76-9.59
	c-0.91-0.36-1.88-0.68-2.92-0.95c-1.04-0.27-2.27-0.5-3.67-0.68c-1.41-0.18-3.02-0.32-4.83-0.41c-1.82-0.09-3.99-0.14-6.53-0.14
	h-20.54c-2.45,0-4.54,0.88-6.26,2.65c-1.72,1.77-2.58,3.88-2.58,6.32v87.04h4.62c2.45,0,4.53-0.86,6.26-2.58
	c1.72-1.72,2.58-3.81,2.58-6.26v-75.48h15.5c2.99,0,5.76,0.23,8.3,0.68c2.54,0.46,4.74,1.29,6.6,2.52c1.86,1.22,3.31,2.95,4.35,5.17
	c1.04,2.22,1.56,5.1,1.56,8.64c0,5.44-1.52,9.7-4.56,12.78c-3.04,3.08-7.38,4.62-17.38,4.62l26.42,49.91h15.23
	c0,0-22.26-40.3-22.44-40.66c-0.36-0.36-0.64-0.68-0.82-0.95v-0.27C459.98,301.9,464.17,298.68,467.3,293.96"/>
<!-- LETTER A -->
<path class="st0" d="M502.02,345.51c2.08,0,3.99-0.61,5.71-1.84c1.72-1.22,2.95-2.83,3.67-4.83l25.26-74.36l18.12,53.42l9.66,27.61
	h14.01l-34.54-96.02h-7.07c-2.09,0-3.99,0.61-5.71,1.84c-1.72,1.22-2.95,2.83-3.67,4.83l-32.23,89.35H502.02z"/>
</svg>
