<svg id="logo-bocconi" xmlns="http://www.w3.org/2000/svg" width="188" height="40" viewBox="0 0 188 40">
  <path id="logo-bocconi-2" data-name="logo-bocconi" d="M124.7,40h-.066a13.04,13.04,0,0,1-9.462-4.134,13.806,13.806,0,0,1,.4-19.539,13.082,13.082,0,0,1,9.05-4.156l.181,0c7.141.121,12.984,6.3,13.026,13.771a14.256,14.256,0,0,1-4.182,10.078A12.816,12.816,0,0,1,124.7,40Zm-6.161-13.852v.226a33.744,33.744,0,0,0,.749,8.782c.872,3.039,2.59,4.517,5.252,4.518h.095c2.682-.034,4.416-1.354,5.3-4.036.773-2.336.8-5.389.821-8.082,0-.416.007-.808.013-1.2.11-5.048-.114-10.051-2.473-12.461a4.7,4.7,0,0,0-3.5-1.391h-.046C119.3,12.5,118.542,19.059,118.542,26.148ZM48.572,40h-.066a13.038,13.038,0,0,1-9.462-4.134,13.8,13.8,0,0,1,.4-19.539,13.082,13.082,0,0,1,9.05-4.156l.181,0c7.142.121,12.985,6.3,13.027,13.771a14.257,14.257,0,0,1-4.183,10.078A12.813,12.813,0,0,1,48.573,40ZM42.41,26.148v.223a33.748,33.748,0,0,0,.749,8.783c.872,3.041,2.59,4.519,5.253,4.52h.095c2.682-.034,4.416-1.354,5.3-4.036.772-2.336.8-5.389.821-8.082,0-.416.007-.808.013-1.2.109-5.049-.116-10.052-2.474-12.462a4.7,4.7,0,0,0-3.5-1.391h-.046C43.163,12.5,42.41,19.059,42.41,26.148Zm45.2.738C87.57,19.672,93,13.115,100.346,13.073c4.217-.041,8.1,2.951,8.14,7.05.042,2.542-1.629,4.425-3.923,4.425a3.913,3.913,0,1,1-.085-7.826,4.968,4.968,0,0,1,3.005,1.269,6.956,6.956,0,0,0-6.555-4.343c-6.095-.042-6.219,7.089-6.219,12.91,0,5.9.375,12.295,6.638,12.172,5.678-.082,7.6-7.009,7.139-9.221h.459c-.084,4.836-2.171,10.123-9.6,10.37-.111,0-.222,0-.332,0C92.34,39.883,87.652,33.82,87.611,26.886Zm-23.373,0c-.041-7.213,5.385-13.771,12.733-13.812,4.216-.041,8.1,2.951,8.141,7.05.041,2.542-1.629,4.425-3.925,4.425a3.913,3.913,0,1,1-.083-7.826,4.971,4.971,0,0,1,3.005,1.269,6.957,6.957,0,0,0-6.555-4.343c-6.1-.042-6.221,7.089-6.221,12.91,0,5.9.375,12.295,6.639,12.172,5.677-.082,7.6-7.009,7.139-9.221h.459c-.084,4.836-2.172,10.123-9.6,10.37-.111,0-.222,0-.332,0C68.966,39.883,64.279,33.82,64.238,26.886ZM.083,38.936v-.369H5.218V1.6H0V1.23H16.573a18.262,18.262,0,0,1,8.935,2.054,8.246,8.246,0,0,1,4.425,7.126,7.084,7.084,0,0,1-.872,3.824,7.867,7.867,0,0,1-2.311,2.517,11.618,11.618,0,0,1-4.874,1.978h.055a13.553,13.553,0,0,1,8.2,3.843,8.277,8.277,0,0,1,2.561,6.075c-.126,7.107-7.072,10.289-13.9,10.289Zm12.985-.369h4.258a7.038,7.038,0,0,0,5.262-1.8c2.013-2.031,2.154-5.53,2.127-8.652-.075-4.253-2.3-9.221-8.307-9.221h-3.34Zm0-20.042h3.381c5.659,0,6.3-3.969,6.471-8.033a9.363,9.363,0,0,0-2.426-6.813A6.4,6.4,0,0,0,15.782,1.6H13.068ZM188,38.935H171.884v-.369h4.593V13.442h-4.509v-.368h11.439V38.566H188v.368h0Zm-32.127,0v-.369h3.09V17.951c0-2.092-.667-4.631-2.88-4.591-3.841.041-5.512,6.107-5.512,8.852V38.566h3.342v.369H139.632v-.369h4.174V13.483h-4.676v-.409h11.438v5.86c.419-2.991,3.173-6.721,7.182-6.557,5.219.205,8.183,3.812,8.183,9.468V38.566h4.509v.369ZM176.751,6.672a3.91,3.91,0,0,1-1.151-2.82A4.014,4.014,0,0,1,179.654,0h.078a4.068,4.068,0,0,1,2.813,1.183A3.861,3.861,0,0,1,183.7,3.935a3.922,3.922,0,0,1-1.154,2.787,4.056,4.056,0,0,1-2.813,1.188h-.071A4.112,4.112,0,0,1,176.751,6.672Z" fill="#fff"/>
</svg>
